<?xml version="1.0" encoding="UTF-8"?>
<svg width="26px" height="26px" viewBox="0 0 26 26" version="1.1" xmlns="http://www.w3.org/2000/svg" xmlns:xlink="http://www.w3.org/1999/xlink">
    <!-- Generator: Sketch 47.1 (45422) - http://www.bohemiancoding.com/sketch -->
    <title>Group</title>
    <desc>Created with Sketch.</desc>
    <defs></defs>
    <g id="Do-it-2017" stroke="none" stroke-width="1" fill="none" fill-rule="evenodd">
        <g id="widget3-copy" transform="translate(-1160.000000, -21.000000)" fill="#B9B9B9">
            <g id="smile" transform="translate(1160.000000, 21.000000)">
                <g id="Group">
                    <path d="M24.18,6.51898413 C23.0254762,4.54092063 21.4592857,2.97473016 19.4812222,1.82020635 C17.5025397,0.66568254 15.3426825,0.0885238095 13.0002063,0.0885238095 C10.6577302,0.0885238095 8.49725397,0.66568254 6.51919048,1.82020635 C4.54092063,2.97452381 2.97473016,4.54071429 1.82020635,6.51898413 C0.66547619,8.49725397 0.0883174603,10.6577302 0.0883174603,13 C0.0883174603,15.3424762 0.66568254,17.5025397 1.82,19.4810159 C2.97452381,21.458873 4.54071429,23.0252698 6.51898413,24.1797937 C8.49725397,25.3341111 10.6575238,25.9112698 13,25.9112698 C15.3424762,25.9112698 17.5029524,25.3341111 19.4810159,24.1797937 C21.4590794,23.0252698 23.0252698,21.458873 24.1797937,19.4810159 C25.3341111,17.5025397 25.9112698,15.3422698 25.9112698,13 C25.9112698,10.6575238 25.3341111,8.49704762 24.18,6.51898413 L24.18,6.51898413 Z M22.9022857,17.177746 C22.3304921,18.5058095 21.5657619,19.6491905 20.6074762,20.6072698 C19.6493968,21.5655556 18.5060159,22.3304921 17.1779524,22.901873 C15.8496825,23.4736667 14.4572381,23.7594603 13.0002063,23.7594603 C11.5431746,23.7594603 10.1507302,23.4734603 8.82246032,22.901873 C7.49439683,22.3302857 6.35101587,21.5653492 5.39273016,20.6072698 C4.43465079,19.6489841 3.66971429,18.5060159 3.09792063,17.177746 C2.52633333,15.8496825 2.24053968,14.4568254 2.24053968,13 C2.24053968,11.5429683 2.52633333,10.1505238 3.09792063,8.82225397 C3.66950794,7.49419048 4.43444444,6.35101587 5.39273016,5.39252381 C6.35101587,4.43444444 7.49439683,3.66950794 8.82246032,3.09771429 C10.1505238,2.52633333 11.5431746,2.24053968 13.0002063,2.24053968 C14.4570317,2.24053968 15.8498889,2.52612698 17.1779524,3.09771429 C18.5060159,3.66930159 19.6491905,4.4342381 20.6074762,5.39252381 C21.5657619,6.35080952 22.3306984,7.49398413 22.9022857,8.82225397 C23.473873,10.1503175 23.759873,11.5427619 23.759873,13 C23.7600794,14.4570317 23.473873,15.8498889 22.9022857,17.177746 L22.9022857,17.177746 Z" id="Shape"></path>
                    <path d="M18.4639206,14.6644127 C18.1839048,14.5742381 17.909254,14.5973492 17.6401746,14.7316825 C17.3708889,14.8658095 17.1915714,15.0791746 17.1024286,15.3705397 C16.822619,16.2673333 16.3038571,16.9930635 15.5471746,17.5477302 C14.7909048,18.1023968 13.9417778,18.3799365 13.0002063,18.3799365 C12.0588413,18.3799365 11.2099206,18.1021905 10.4532381,17.5477302 C9.6967619,16.9928571 9.1784127,16.2673333 8.89819048,15.3705397 C8.80863492,15.0791746 8.632,14.8660159 8.36869841,14.7316825 C8.10539683,14.5973492 7.83363492,14.5742381 7.5534127,14.6644127 C7.26204762,14.7539683 7.04909524,14.9303968 6.91455556,15.1934921 C6.78001587,15.4567937 6.75752381,15.7291746 6.84728571,16.0089841 C7.26184127,17.3653175 8.0352381,18.4579365 9.16726984,19.2874603 C10.2993016,20.1169841 11.5770159,20.5313333 13.0004127,20.5313333 C14.4236032,20.5313333 15.7017302,20.1167778 16.8335556,19.2874603 C17.9649683,18.4577302 18.7383651,17.3655238 19.153127,16.0089841 C19.2433016,15.7291746 19.2208095,15.4567937 19.0860635,15.1934921 C18.9511111,14.9303968 18.7437302,14.7541746 18.4639206,14.6644127 L18.4639206,14.6644127 Z" id="Shape"></path>
                    <path d="M8.6961746,10.8481905 C9.29004762,10.8481905 9.79725397,10.6377143 10.2175873,10.2175873 C10.6379206,9.79746032 10.8481905,9.29025397 10.8481905,8.6961746 C10.8481905,8.10209524 10.6379206,7.59509524 10.2175873,7.1747619 C9.79725397,6.75442857 9.29004762,6.54415873 8.6961746,6.54415873 C8.10209524,6.54415873 7.59488889,6.75442857 7.17455556,7.1747619 C6.75442857,7.59509524 6.54415873,8.10209524 6.54415873,8.6961746 C6.54415873,9.29025397 6.75422222,9.79746032 7.17455556,10.2175873 C7.59509524,10.6379206 8.10209524,10.8481905 8.6961746,10.8481905 L8.6961746,10.8481905 Z" id="Shape"></path>
                    <path d="M17.3038254,6.54415873 C16.709746,6.54415873 16.2023333,6.75442857 15.782,7.1747619 C15.3620794,7.59509524 15.1513968,8.10209524 15.1513968,8.6961746 C15.1513968,9.29025397 15.3620794,9.79746032 15.782,10.2175873 C16.2023333,10.6379206 16.709746,10.8481905 17.3038254,10.8481905 C17.8974921,10.8481905 18.4049048,10.6377143 18.8252381,10.2175873 C19.2455714,9.79746032 19.4558413,9.29025397 19.4558413,8.6961746 C19.4558413,8.10209524 19.2455714,7.59509524 18.8252381,7.1747619 C18.4049048,6.75442857 17.8974921,6.54415873 17.3038254,6.54415873 L17.3038254,6.54415873 Z" id="Shape"></path>
                </g>
            </g>
        </g>
    </g>
</svg>